<mxfile host="app.diagrams.net" modified="2021-04-06T16:17:56.703Z" agent="5.0 (Windows NT 10.0; Win64; x64) AppleWebKit/537.36 (KHTML, like Gecko) Chrome/88.0.4324.150 Safari/537.36" etag="EqSNIfXi3n45oNs8oZ8d" version="14.5.7" type="github">
  <diagram id="1wrpU3sz9jsHv0rJWdAB" name="Page-1">
    <mxGraphModel dx="1483" dy="829" grid="1" gridSize="10" guides="1" tooltips="1" connect="1" arrows="1" fold="1" page="1" pageScale="1" pageWidth="827" pageHeight="1169" math="0" shadow="0">
      <root>
        <mxCell id="0" />
        <mxCell id="1" parent="0" />
        <mxCell id="VwkmWO9nR3RkuL_jt1ao-151" value="" style="rounded=0;whiteSpace=wrap;html=1;" vertex="1" parent="1">
          <mxGeometry x="20" y="20" width="770" height="1110" as="geometry" />
        </mxCell>
        <mxCell id="VwkmWO9nR3RkuL_jt1ao-183" value="" style="rounded=0;whiteSpace=wrap;html=1;fontSize=24;shadow=0;sketch=0;glass=0;dashed=1;" vertex="1" parent="1">
          <mxGeometry x="40" y="80" width="730" height="800" as="geometry" />
        </mxCell>
        <mxCell id="VwkmWO9nR3RkuL_jt1ao-155" style="edgeStyle=none;rounded=0;orthogonalLoop=1;jettySize=auto;html=1;" edge="1" parent="1" source="VwkmWO9nR3RkuL_jt1ao-152" target="VwkmWO9nR3RkuL_jt1ao-151">
          <mxGeometry relative="1" as="geometry" />
        </mxCell>
        <mxCell id="VwkmWO9nR3RkuL_jt1ao-184" style="edgeStyle=orthogonalEdgeStyle;rounded=0;orthogonalLoop=1;jettySize=auto;html=1;entryX=1;entryY=0.5;entryDx=0;entryDy=0;startArrow=none;startFill=0;endArrow=classic;endFill=1;fontSize=24;" edge="1" parent="1" source="VwkmWO9nR3RkuL_jt1ao-152" target="VwkmWO9nR3RkuL_jt1ao-174">
          <mxGeometry relative="1" as="geometry" />
        </mxCell>
        <mxCell id="VwkmWO9nR3RkuL_jt1ao-152" value="&lt;font style=&quot;font-size: 24px&quot;&gt;USB&lt;/font&gt;" style="rounded=0;whiteSpace=wrap;html=1;" vertex="1" parent="1">
          <mxGeometry x="340" y="1070" width="120" height="60" as="geometry" />
        </mxCell>
        <mxCell id="VwkmWO9nR3RkuL_jt1ao-156" style="edgeStyle=orthogonalEdgeStyle;rounded=0;orthogonalLoop=1;jettySize=auto;html=1;startArrow=classic;startFill=1;" edge="1" parent="1" source="VwkmWO9nR3RkuL_jt1ao-153" target="VwkmWO9nR3RkuL_jt1ao-152">
          <mxGeometry relative="1" as="geometry">
            <Array as="points">
              <mxPoint x="640" y="1100" />
            </Array>
          </mxGeometry>
        </mxCell>
        <mxCell id="VwkmWO9nR3RkuL_jt1ao-157" value="USB" style="edgeLabel;html=1;align=center;verticalAlign=middle;resizable=0;points=[];fontSize=24;" vertex="1" connectable="0" parent="VwkmWO9nR3RkuL_jt1ao-156">
          <mxGeometry x="-0.5619" y="1" relative="1" as="geometry">
            <mxPoint x="-1.03" y="18.86" as="offset" />
          </mxGeometry>
        </mxCell>
        <mxCell id="VwkmWO9nR3RkuL_jt1ao-153" value="&lt;font style=&quot;font-size: 24px&quot;&gt;N32G455CCL7&lt;/font&gt;" style="rounded=0;whiteSpace=wrap;html=1;" vertex="1" parent="1">
          <mxGeometry x="540" y="670" width="200" height="170" as="geometry" />
        </mxCell>
        <mxCell id="VwkmWO9nR3RkuL_jt1ao-160" style="edgeStyle=orthogonalEdgeStyle;rounded=0;orthogonalLoop=1;jettySize=auto;html=1;startArrow=none;startFill=0;" edge="1" parent="1" source="VwkmWO9nR3RkuL_jt1ao-158" target="VwkmWO9nR3RkuL_jt1ao-159">
          <mxGeometry relative="1" as="geometry" />
        </mxCell>
        <mxCell id="VwkmWO9nR3RkuL_jt1ao-166" style="edgeStyle=orthogonalEdgeStyle;rounded=0;orthogonalLoop=1;jettySize=auto;html=1;entryX=0.25;entryY=0;entryDx=0;entryDy=0;startArrow=classic;startFill=1;" edge="1" parent="1" source="VwkmWO9nR3RkuL_jt1ao-158" target="VwkmWO9nR3RkuL_jt1ao-153">
          <mxGeometry relative="1" as="geometry">
            <Array as="points">
              <mxPoint x="590" y="570" />
            </Array>
          </mxGeometry>
        </mxCell>
        <mxCell id="VwkmWO9nR3RkuL_jt1ao-167" value="SWD" style="edgeLabel;html=1;align=center;verticalAlign=middle;resizable=0;points=[];fontSize=24;" vertex="1" connectable="0" parent="VwkmWO9nR3RkuL_jt1ao-166">
          <mxGeometry x="-0.261" y="-2" relative="1" as="geometry">
            <mxPoint x="-18.17" y="3" as="offset" />
          </mxGeometry>
        </mxCell>
        <mxCell id="VwkmWO9nR3RkuL_jt1ao-168" style="edgeStyle=orthogonalEdgeStyle;rounded=0;orthogonalLoop=1;jettySize=auto;html=1;entryX=0.5;entryY=0;entryDx=0;entryDy=0;startArrow=classic;startFill=1;fontSize=24;" edge="1" parent="1" source="VwkmWO9nR3RkuL_jt1ao-158" target="VwkmWO9nR3RkuL_jt1ao-153">
          <mxGeometry relative="1" as="geometry">
            <Array as="points">
              <mxPoint x="640" y="550" />
            </Array>
          </mxGeometry>
        </mxCell>
        <mxCell id="VwkmWO9nR3RkuL_jt1ao-169" value="UART" style="edgeLabel;html=1;align=center;verticalAlign=middle;resizable=0;points=[];fontSize=24;" vertex="1" connectable="0" parent="VwkmWO9nR3RkuL_jt1ao-168">
          <mxGeometry x="-0.4501" y="1" relative="1" as="geometry">
            <mxPoint x="105.17" y="26" as="offset" />
          </mxGeometry>
        </mxCell>
        <mxCell id="VwkmWO9nR3RkuL_jt1ao-158" value="&lt;font style=&quot;font-size: 24px&quot;&gt;N32L406MBL7&lt;/font&gt;" style="rounded=0;whiteSpace=wrap;html=1;" vertex="1" parent="1">
          <mxGeometry x="249" y="414" width="200" height="170" as="geometry" />
        </mxCell>
        <mxCell id="VwkmWO9nR3RkuL_jt1ao-159" value="&lt;font style=&quot;font-size: 24px&quot;&gt;LCD显示&lt;/font&gt;" style="rounded=1;whiteSpace=wrap;html=1;" vertex="1" parent="1">
          <mxGeometry x="550" y="469" width="180" height="60" as="geometry" />
        </mxCell>
        <mxCell id="VwkmWO9nR3RkuL_jt1ao-162" value="" style="edgeStyle=orthogonalEdgeStyle;rounded=0;orthogonalLoop=1;jettySize=auto;html=1;startArrow=classic;startFill=1;" edge="1" parent="1" source="VwkmWO9nR3RkuL_jt1ao-161" target="VwkmWO9nR3RkuL_jt1ao-158">
          <mxGeometry relative="1" as="geometry" />
        </mxCell>
        <mxCell id="VwkmWO9nR3RkuL_jt1ao-161" value="&lt;font style=&quot;font-size: 24px&quot;&gt;LPUART&lt;/font&gt;" style="rounded=0;whiteSpace=wrap;html=1;horizontal=0;" vertex="1" parent="1">
          <mxGeometry x="85" y="404" width="60" height="190" as="geometry" />
        </mxCell>
        <mxCell id="VwkmWO9nR3RkuL_jt1ao-178" style="edgeStyle=orthogonalEdgeStyle;rounded=0;orthogonalLoop=1;jettySize=auto;html=1;entryX=0.147;entryY=0.001;entryDx=0;entryDy=0;entryPerimeter=0;startArrow=classic;startFill=1;fontSize=24;endArrow=none;endFill=0;exitX=0.185;exitY=1.014;exitDx=0;exitDy=0;exitPerimeter=0;" edge="1" parent="1" source="VwkmWO9nR3RkuL_jt1ao-165">
          <mxGeometry relative="1" as="geometry">
            <mxPoint x="351.6" y="170" as="sourcePoint" />
            <mxPoint x="270.0000000000001" y="414.16999999999985" as="targetPoint" />
            <Array as="points" />
          </mxGeometry>
        </mxCell>
        <mxCell id="VwkmWO9nR3RkuL_jt1ao-179" value="GPIO X 5" style="edgeLabel;html=1;align=center;verticalAlign=middle;resizable=0;points=[];fontSize=24;horizontal=0;" vertex="1" connectable="0" parent="VwkmWO9nR3RkuL_jt1ao-178">
          <mxGeometry x="-0.3165" relative="1" as="geometry">
            <mxPoint x="-20.309999999999995" y="68.33" as="offset" />
          </mxGeometry>
        </mxCell>
        <mxCell id="VwkmWO9nR3RkuL_jt1ao-181" style="edgeStyle=orthogonalEdgeStyle;rounded=0;orthogonalLoop=1;jettySize=auto;html=1;entryX=0.873;entryY=0.005;entryDx=0;entryDy=0;entryPerimeter=0;startArrow=none;startFill=0;fontSize=24;" edge="1" parent="1" source="VwkmWO9nR3RkuL_jt1ao-165" target="VwkmWO9nR3RkuL_jt1ao-158">
          <mxGeometry relative="1" as="geometry">
            <Array as="points">
              <mxPoint x="424" y="200" />
              <mxPoint x="424" y="200" />
            </Array>
          </mxGeometry>
        </mxCell>
        <mxCell id="VwkmWO9nR3RkuL_jt1ao-182" value="比较器" style="edgeLabel;html=1;align=center;verticalAlign=middle;resizable=0;points=[];fontSize=24;horizontal=0;" vertex="1" connectable="0" parent="VwkmWO9nR3RkuL_jt1ao-181">
          <mxGeometry x="0.1055" y="-1" relative="1" as="geometry">
            <mxPoint x="-22.799999999999997" y="15" as="offset" />
          </mxGeometry>
        </mxCell>
        <mxCell id="VwkmWO9nR3RkuL_jt1ao-165" value="&lt;font style=&quot;font-size: 24px&quot;&gt;SENSOR 接口&lt;/font&gt;" style="rounded=1;whiteSpace=wrap;html=1;" vertex="1" parent="1">
          <mxGeometry x="224" y="110" width="250" height="60" as="geometry" />
        </mxCell>
        <mxCell id="VwkmWO9nR3RkuL_jt1ao-172" style="edgeStyle=orthogonalEdgeStyle;rounded=0;orthogonalLoop=1;jettySize=auto;html=1;entryX=0.25;entryY=1;entryDx=0;entryDy=0;startArrow=classic;startFill=1;fontSize=24;" edge="1" parent="1" source="VwkmWO9nR3RkuL_jt1ao-171" target="VwkmWO9nR3RkuL_jt1ao-158">
          <mxGeometry relative="1" as="geometry" />
        </mxCell>
        <mxCell id="VwkmWO9nR3RkuL_jt1ao-173" value="SPI" style="edgeLabel;html=1;align=center;verticalAlign=middle;resizable=0;points=[];fontSize=24;" vertex="1" connectable="0" parent="VwkmWO9nR3RkuL_jt1ao-172">
          <mxGeometry x="0.0952" relative="1" as="geometry">
            <mxPoint x="-24.67" y="3" as="offset" />
          </mxGeometry>
        </mxCell>
        <mxCell id="VwkmWO9nR3RkuL_jt1ao-171" value="&lt;font style=&quot;font-size: 24px&quot;&gt;NZ8801蓝牙模块&lt;/font&gt;" style="rounded=0;whiteSpace=wrap;html=1;" vertex="1" parent="1">
          <mxGeometry x="120" y="690" width="200" height="170" as="geometry" />
        </mxCell>
        <mxCell id="VwkmWO9nR3RkuL_jt1ao-175" style="edgeStyle=orthogonalEdgeStyle;rounded=0;orthogonalLoop=1;jettySize=auto;html=1;entryX=0;entryY=0.75;entryDx=0;entryDy=0;startArrow=none;startFill=0;fontSize=24;" edge="1" parent="1" source="VwkmWO9nR3RkuL_jt1ao-174" target="VwkmWO9nR3RkuL_jt1ao-158">
          <mxGeometry relative="1" as="geometry">
            <Array as="points">
              <mxPoint x="80" y="640" />
              <mxPoint x="190" y="640" />
              <mxPoint x="190" y="542" />
            </Array>
          </mxGeometry>
        </mxCell>
        <mxCell id="VwkmWO9nR3RkuL_jt1ao-177" value="ADC" style="edgeLabel;html=1;align=center;verticalAlign=middle;resizable=0;points=[];fontSize=24;" vertex="1" connectable="0" parent="VwkmWO9nR3RkuL_jt1ao-175">
          <mxGeometry x="-0.286" y="-2" relative="1" as="geometry">
            <mxPoint x="-2.06" y="-141.29" as="offset" />
          </mxGeometry>
        </mxCell>
        <mxCell id="VwkmWO9nR3RkuL_jt1ao-174" value="电压检测" style="rounded=0;whiteSpace=wrap;html=1;fontSize=24;" vertex="1" parent="1">
          <mxGeometry x="40" y="980" width="130" height="60" as="geometry" />
        </mxCell>
        <mxCell id="VwkmWO9nR3RkuL_jt1ao-187" style="edgeStyle=orthogonalEdgeStyle;rounded=0;orthogonalLoop=1;jettySize=auto;html=1;startArrow=classic;startFill=1;endArrow=none;endFill=0;fontSize=24;" edge="1" parent="1" source="VwkmWO9nR3RkuL_jt1ao-185">
          <mxGeometry relative="1" as="geometry">
            <mxPoint x="300" y="1100" as="targetPoint" />
          </mxGeometry>
        </mxCell>
        <mxCell id="VwkmWO9nR3RkuL_jt1ao-188" value="" style="edgeStyle=orthogonalEdgeStyle;rounded=0;orthogonalLoop=1;jettySize=auto;html=1;startArrow=none;startFill=0;endArrow=classic;endFill=1;fontSize=24;" edge="1" parent="1" source="VwkmWO9nR3RkuL_jt1ao-185" target="VwkmWO9nR3RkuL_jt1ao-183">
          <mxGeometry relative="1" as="geometry">
            <Array as="points">
              <mxPoint x="388" y="920" />
              <mxPoint x="388" y="920" />
            </Array>
          </mxGeometry>
        </mxCell>
        <mxCell id="VwkmWO9nR3RkuL_jt1ao-189" value="3.0V" style="edgeLabel;html=1;align=center;verticalAlign=middle;resizable=0;points=[];fontSize=24;" vertex="1" connectable="0" parent="VwkmWO9nR3RkuL_jt1ao-188">
          <mxGeometry x="-0.265" relative="1" as="geometry">
            <mxPoint x="26.48" y="-14.48" as="offset" />
          </mxGeometry>
        </mxCell>
        <mxCell id="VwkmWO9nR3RkuL_jt1ao-185" value="LDO" style="rounded=0;whiteSpace=wrap;html=1;fontSize=24;" vertex="1" parent="1">
          <mxGeometry x="340" y="950" width="95" height="60" as="geometry" />
        </mxCell>
        <mxCell id="VwkmWO9nR3RkuL_jt1ao-191" style="edgeStyle=orthogonalEdgeStyle;rounded=0;orthogonalLoop=1;jettySize=auto;html=1;entryX=0.75;entryY=1;entryDx=0;entryDy=0;startArrow=none;startFill=0;endArrow=classic;endFill=1;fontSize=24;" edge="1" parent="1" source="VwkmWO9nR3RkuL_jt1ao-190" target="VwkmWO9nR3RkuL_jt1ao-158">
          <mxGeometry relative="1" as="geometry" />
        </mxCell>
        <mxCell id="VwkmWO9nR3RkuL_jt1ao-192" value="GPIO" style="edgeLabel;html=1;align=center;verticalAlign=middle;resizable=0;points=[];fontSize=24;" vertex="1" connectable="0" parent="VwkmWO9nR3RkuL_jt1ao-191">
          <mxGeometry x="-0.2406" y="2" relative="1" as="geometry">
            <mxPoint x="-25" y="-30.83" as="offset" />
          </mxGeometry>
        </mxCell>
        <mxCell id="VwkmWO9nR3RkuL_jt1ao-190" value="霍尔传感器" style="rounded=0;whiteSpace=wrap;html=1;shadow=0;glass=0;sketch=0;gradientColor=none;fontSize=24;" vertex="1" parent="1">
          <mxGeometry x="354" y="740" width="146" height="60" as="geometry" />
        </mxCell>
      </root>
    </mxGraphModel>
  </diagram>
</mxfile>
